<svg width="317" height="147" viewBox="0 0 317 147" fill="none" xmlns="http://www.w3.org/2000/svg">
<g clip-path="url(#clip0_2_2)">
<path d="M267.5 174.425C303.675 174.425 333 141.764 333 101.474C333 61.1839 303.675 28.5224 267.5 28.5224C231.325 28.5224 202 61.1839 202 101.474C202 141.764 231.325 174.425 267.5 174.425Z" fill="url(#paint0_linear_2_2)"/>
<path d="M155.5 145.903C191.675 145.903 221 113.242 221 72.9515C221 32.6615 191.675 0 155.5 0C119.325 0 90 32.6615 90 72.9515C90 113.242 119.325 145.903 155.5 145.903Z" fill="url(#paint1_linear_2_2)"/>
<path d="M57.5 182.104C93.6747 182.104 123 149.443 123 109.153C123 68.863 93.6747 36.2015 57.5 36.2015C21.3254 36.2015 -8 68.863 -8 109.153C-8 149.443 21.3254 182.104 57.5 182.104Z" fill="url(#paint2_linear_2_2)"/>
<path d="M49.9968 56.097C49.9968 56.097 50.6862 52.4123 54.3714 51.6726C58.0567 50.9329 60.6581 54.1157 65.1487 52.9626C69.6394 51.8094 74.4161 54.1157 74.3203 59.8757C74.2245 65.6358 76.899 68.0512 80.3385 70.8815C83.778 73.7117 80.244 77.1034 79.4789 80.8932C78.7139 84.683 85.0875 83.2741 84.3514 88.2792C82.2529 102.542 46.6883 98.5647 41.0734 94.4459C37.881 92.1051 35.78 88.5931 38.0234 84.8199C40.2668 81.0467 41.1365 86.479 39.8307 76.1798C39.3178 72.1328 43.7731 69.1283 44.5596 66.2954C45.346 63.4623 44.2017 56.7026 49.9968 56.097Z" fill="#120283"/>
<path d="M79.434 167.067C78.3492 167.517 77.2569 167.942 76.1571 168.339C61.6415 173.615 46.492 174.604 46.492 174.604L44.0368 173.203L39.1605 170.421L19.7295 159.335V134.128C19.7295 134.128 19.8643 114.71 37.8787 107.047C39.3152 106.439 40.7852 105.931 42.2799 105.526C43.9689 105.065 45.6813 104.714 47.4082 104.475L73.2065 104.351C73.2065 104.351 74.845 104.568 77.333 105.338C80.0238 106.167 82.6287 107.302 85.1056 108.723C92.8909 113.204 101.731 122.104 102.313 139.479C102.783 153.455 91.7868 161.947 79.434 167.067Z" fill="#E8ECF8"/>
<path d="M44.0417 173.203L39.1654 170.421L19.7344 159.335V134.128C19.7344 134.128 19.8692 114.71 37.8836 107.047C39.3201 106.439 40.7901 105.931 42.2848 105.526C42.2848 105.526 43.2716 155.063 44.0417 173.203Z" fill="#120283"/>
<path d="M79.4332 167.067C78.3493 167.517 77.257 167.942 76.1562 168.339C76.581 145.925 77.3347 105.335 77.3347 105.335C85.1741 107.754 101.516 115.639 102.315 139.477C102.784 153.455 91.786 161.947 79.4332 167.067Z" fill="#120283"/>
<path d="M73.212 104.348C70.3547 106.957 67.5857 108.542 64.978 109.406H64.9604C56.3623 112.235 49.5097 107.166 46.8428 104.713C47.0356 104.633 47.2285 104.551 47.4188 104.467C47.9196 104.247 48.4027 103.982 48.8631 103.673C55.659 99.1009 54.4226 86.5411 54.4226 86.5411H66.4892C66.3535 88.3109 66.37 90.0908 66.5384 91.8574C66.9354 96.2292 68.4075 102.061 73.212 104.348Z" fill="#E8ECF8"/>
<path d="M85.1077 108.72C82.6757 110.862 80.0884 112.784 77.3716 114.465C60.6177 124.721 48.4616 117.709 42.3476 112.098C39.4223 109.413 37.8809 107.047 37.8809 107.047C39.3169 106.439 40.7865 105.931 42.2808 105.526C43.0748 105.308 43.897 105.11 44.7473 104.934C45.3598 104.807 45.9875 104.693 46.6303 104.593C46.8887 104.55 47.1483 104.513 47.4104 104.474L73.2087 104.352C73.2087 104.352 73.6057 104.403 74.3077 104.55C74.7513 104.643 75.316 104.771 75.9852 104.951C76.3995 105.061 76.8498 105.19 77.3363 105.34C80.0268 106.167 82.6313 107.3 85.1077 108.72Z" fill="#E8ECF8"/>
<path d="M77.3712 114.465C60.6173 124.72 48.4612 117.709 42.3472 112.097C43.3857 110.684 44.5314 108.378 44.7418 104.931C45.3544 104.804 45.982 104.69 46.6248 104.59C46.2051 106.816 45.701 112.764 51.147 116.601C57.9529 121.396 70.1343 118.801 72.3563 114.4C74.0842 110.972 74.2934 106.405 74.3023 104.547C74.7459 104.64 75.3105 104.768 75.9798 104.948C75.6937 106.842 75.3131 111.253 77.3712 114.465Z" fill="#120283"/>
<path d="M66.5321 91.8615C65.8263 93.1875 64.8142 94.1236 63.3811 94.2549C57.7586 94.7678 54.5963 88.7078 54.6631 88.1492L54.9543 86.5454H66.4842C66.3481 88.3152 66.3641 90.0951 66.5321 91.8615Z" fill="#120283"/>
<path d="M74.1007 74.96C74.1007 73.2331 72.9878 71.8311 71.6153 71.8311C70.2428 71.8311 69.1299 73.2331 69.1299 74.96C69.1299 76.6868 70.2428 78.8603 71.6153 78.8603C72.9878 78.8603 74.1007 76.6883 74.1007 74.96Z" fill="#E8ECF8"/>
<path d="M70.9628 76.0331L70.7876 76.0138C70.7876 75.9931 71.0006 73.9522 72.7273 73.9025V74.096C71.1581 74.1402 70.964 76.0138 70.9628 76.0331Z" fill="#120283"/>
<path d="M72.6652 75.7427C72.3715 75.4095 72.0716 75.2518 71.7729 75.2684C71.3191 75.2975 71.0166 75.7303 71.0091 75.7345L70.8691 75.6169C70.8843 75.5962 71.2271 75.1109 71.7602 75.0763C72.1194 75.0541 72.461 75.2325 72.7925 75.6087L72.6652 75.7427Z" fill="#120283"/>
<path d="M46.4922 74.96C46.4922 73.2331 47.6051 71.8311 48.9776 71.8311C50.3501 71.8311 51.463 73.2331 51.463 74.96C51.463 76.6868 50.3501 78.8603 48.9776 78.8603C47.6051 78.8603 46.4922 76.6883 46.4922 74.96Z" fill="#E8ECF8"/>
<path d="M49.909 76.0331L50.0842 76.0138C50.0842 75.993 49.8712 73.9522 48.1445 73.9024V74.096C49.7137 74.1402 49.9078 76.0137 49.909 76.0331Z" fill="#120283"/>
<path d="M48.2051 75.7427C48.4988 75.4095 48.8 75.2518 49.0987 75.2684C49.5512 75.2975 49.8549 75.7303 49.8625 75.7345L50.0011 75.6169C49.9873 75.5962 49.6444 75.1109 49.1113 75.0763C48.7509 75.0541 48.4106 75.2325 48.0791 75.6087L48.2051 75.7427Z" fill="#120283"/>
<path d="M67.4053 86.9738C65.5639 89.2938 63.2322 90.7884 60.4354 90.7387C57.6424 90.7884 55.3083 89.2938 53.4669 86.9738C53.457 86.9585 53.446 86.9442 53.4341 86.9309C50.1357 82.3572 49.4639 75.6957 50.3575 67.7635C51.0003 62.0588 55.9032 59.8466 58.6268 59.053C59.812 58.7073 61.0589 58.7073 62.2441 59.053C64.9677 59.848 69.8719 62.0601 70.5147 67.7635C71.4108 75.7206 70.7327 82.4028 67.4053 86.9738Z" fill="#E8ECF8"/>
<path d="M64.199 75.7302C64.5289 75.7302 64.7964 75.4368 64.7964 75.0748C64.7964 74.7129 64.5289 74.4194 64.199 74.4194C63.869 74.4194 63.6016 74.7129 63.6016 75.0748C63.6016 75.4368 63.869 75.7302 64.199 75.7302Z" fill="#120283"/>
<path d="M56.2937 75.7302C56.6236 75.7302 56.8911 75.4368 56.8911 75.0748C56.8911 74.7129 56.6236 74.4194 56.2937 74.4194C55.9638 74.4194 55.6963 74.7129 55.6963 75.0748C55.6963 75.4368 55.9638 75.7302 56.2937 75.7302Z" fill="#120283"/>
<path d="M68.0308 69.4063C68.0308 69.4063 66.4692 69.4505 64.4174 69.4616C62.3656 69.4727 61.8375 69.4505 62.0228 68.8726C62.208 68.2946 64.2636 68.3071 65.5517 68.5062C66.4146 68.6678 67.2504 68.9712 68.0308 69.4063Z" fill="#120283"/>
<path d="M52.3237 69.4063C52.3237 69.4063 53.8853 69.4505 55.9359 69.4616C57.9865 69.4727 58.5159 69.4505 58.3306 68.8726C58.1453 68.2946 56.0897 68.3071 54.8016 68.5062C53.9391 68.6678 53.1037 68.9712 52.3237 69.4063Z" fill="#120283"/>
<path d="M60.0344 79.6804C59.8201 79.6804 59.6071 79.643 59.4899 79.5227C59.4499 79.4816 59.4202 79.4298 59.4036 79.3724C59.3871 79.3151 59.3842 79.254 59.3954 79.195C59.4823 78.5922 59.8025 76.2002 59.805 76.1767L59.979 76.2044C59.979 76.2278 59.6563 78.6212 59.5693 79.2241C59.5624 79.2519 59.5625 79.2813 59.5696 79.309C59.5767 79.3368 59.5905 79.3619 59.6097 79.3817C59.7723 79.549 60.3419 79.4854 60.6634 79.4052L60.7024 79.5933C60.483 79.6468 60.2592 79.676 60.0344 79.6804Z" fill="#120283"/>
<path d="M61.1841 81.1928C60.9255 81.196 60.6674 81.1653 60.4153 81.1015C60.4049 81.0986 60.3951 81.0933 60.3865 81.0862C60.3779 81.0791 60.3707 81.0701 60.3652 81.0599C60.3598 81.0497 60.3562 81.0384 60.3548 81.0267C60.3533 81.015 60.3539 81.003 60.3567 80.9916C60.3594 80.9802 60.3642 80.9695 60.3707 80.96C60.3772 80.9506 60.3853 80.9427 60.3946 80.9368C60.404 80.9307 60.4142 80.9268 60.4249 80.9253C60.4356 80.9236 60.4465 80.9244 60.4569 80.9273C61.1314 81.082 61.8324 81.0166 62.4735 80.7393C62.4834 80.7347 62.4941 80.7323 62.5048 80.7322C62.5156 80.7321 62.5263 80.7343 62.5363 80.7387C62.5464 80.7432 62.5555 80.7496 62.5632 80.758C62.5709 80.7663 62.577 80.7762 62.5812 80.787C62.5854 80.7979 62.5877 80.8096 62.5878 80.8215C62.5879 80.8333 62.5858 80.8451 62.5818 80.856C62.5778 80.867 62.5718 80.877 62.5642 80.8854C62.5567 80.8939 62.5477 80.9006 62.5377 80.9052C62.1082 81.0977 61.6482 81.1954 61.1841 81.1928Z" fill="#120283"/>
<path d="M70.6219 64.9431L70.3018 82.5646L71.2269 71.4455C71.2269 71.4455 74.0941 67.2561 70.6219 64.9431Z" fill="#120283"/>
<path d="M50.4129 65.727L50.5692 82.5646L49.6453 71.4455C49.6453 71.4455 46.943 68.04 50.4129 65.727Z" fill="#120283"/>
<path d="M101.86 145.055C100.291 152.712 94.9397 158.414 88.1413 162.651C87.3599 163.137 86.5617 163.606 85.7466 164.054C83.6908 165.175 81.5841 166.181 79.4347 167.067C78.6457 149.93 77.6311 115.579 77.335 105.335C85.177 107.754 101.513 115.642 102.31 139.473C102.38 141.348 102.229 143.224 101.86 145.055Z" fill="#BF0830"/>
<path d="M42.2809 105.523L39.1666 170.421L34.3545 167.677L31.6385 166.126L19.7344 159.337V134.125C19.7344 134.125 19.8907 111.663 42.2809 105.523Z" fill="#BF0830"/>
<path d="M50.4542 68.918C50.4542 68.918 50.8184 65.3536 52.3233 63.4137C52.3233 63.4137 56.7774 60.4162 68.0298 63.4137C68.0298 63.4137 70.1951 64.8295 70.5215 68.918C70.5215 68.918 72.0201 64.6139 69.8346 59.3032C67.6492 53.9926 55.4591 54.1447 52.8917 56.9044C50.3244 59.6641 46.7676 65.5154 50.4542 68.918Z" fill="#120283"/>
<path d="M88.1415 162.651C87.3601 163.137 86.5619 163.606 85.7469 164.054L82.2544 113.412C82.3703 114.585 85.4658 145.551 88.1415 162.651Z" fill="#EF9143"/>
<path d="M31.6387 166.126C34.4228 150.186 37.9719 114.669 38.098 113.413L34.3547 167.677L31.6387 166.126Z" fill="#EF9143"/>
<path d="M44.7031 119.702C44.7031 119.702 58.7473 131.531 75.3714 119.702C75.3714 119.702 60.8975 135.773 44.7031 119.702Z" fill="#EDEDED"/>
<path d="M48.8589 154.409C48.8589 154.409 65.0532 148.436 74.2248 131.771C74.2198 131.771 65.1969 155.038 48.8589 154.409Z" fill="#EDEDED"/>
<path d="M52.3232 63.4139C52.3232 63.4139 57.6722 60.6336 57.9596 64.4067C58.2469 68.1798 60.6429 70.0755 63.5997 68.3831C66.5565 66.6907 67.8471 67.5535 67.203 70.457C66.559 73.3605 69.4276 73.391 72.7927 70.457C76.1579 67.5231 69.6935 61.6539 69.1289 61.34C68.5642 61.0262 67.0001 57.2517 62.5876 57.9596C58.1751 58.6674 52.3232 63.4139 52.3232 63.4139Z" fill="#120283"/>
<path d="M154.125 38.4202V71.5869C151.83 74.676 148.279 78.5601 145.246 78.004C140.305 77.0952 139.034 69.9953 137.141 59.2957C135.249 48.5962 141.107 37.8105 154.125 38.4202Z" fill="#120283"/>
<path d="M154.125 38.4202V71.5869C156.421 74.676 159.973 78.5601 163.004 78.004C167.945 77.0952 169.216 69.9953 171.109 59.2957C173.002 48.5962 167.151 37.8105 154.125 38.4202Z" fill="#120283"/>
<path d="M201.445 159.634C201.445 159.725 201.445 159.815 201.445 159.904C201.315 160.14 201.184 160.369 201.045 160.602C200.971 160.726 200.897 160.849 200.824 160.975C198.545 164.704 195.421 167.931 191.772 170.716C191.468 170.949 191.158 171.181 190.845 171.405C190.562 171.614 190.275 171.817 189.984 172.019C189.461 172.385 188.93 172.74 188.391 173.085C178.002 179.771 164.621 183.533 154.169 185.604C144.523 187.513 137.369 187.976 137.369 187.976L123.565 180.102L119.849 177.981L114.578 174.984L109.86 172.294L109.415 172.042L107.743 171.087L105 169.522V139.055C105 139.055 105 138.837 105.021 138.438C105.034 138.199 105.052 137.895 105.081 137.532C105.081 137.478 105.089 137.424 105.095 137.369C105.173 136.426 105.317 135.127 105.581 133.579C105.923 131.579 106.389 129.607 106.976 127.676C107.063 127.39 107.158 127.097 107.253 126.803C108.342 123.419 109.838 120.209 111.699 117.257C111.88 116.975 112.062 116.694 112.253 116.412C114.708 112.758 117.768 109.642 121.273 107.228C121.665 106.955 122.072 106.687 122.487 106.427C124.033 105.454 125.641 104.606 127.299 103.887C128.401 103.408 129.559 102.97 130.773 102.572C131.958 102.188 133.197 101.847 134.488 101.549C134.706 101.5 134.924 101.452 135.146 101.406C136.21 101.179 137.314 100.984 138.457 100.822L169.632 100.678L169.747 100.717C170.087 100.831 171.151 101.205 172.692 101.843L172.771 101.878L172.87 101.92C172.908 101.935 172.956 101.954 173.008 101.98C173.365 102.133 173.749 102.305 174.146 102.468C175.248 102.964 176.502 103.565 177.851 104.28C179.037 104.915 180.304 105.635 181.595 106.446C182.009 106.706 182.425 106.977 182.842 107.259C186.388 109.62 190.059 112.654 193.031 116.434C193.251 116.707 193.466 116.987 193.673 117.269C195.81 120.097 197.421 123.355 198.416 126.861C198.502 127.153 198.586 127.449 198.669 127.747C199.268 129.974 199.742 132.24 200.089 134.53C200.196 135.198 200.292 135.876 200.385 136.56C200.433 136.922 200.48 137.286 200.523 137.652C200.559 137.952 200.594 138.251 200.628 138.553C200.727 139.408 200.814 140.271 200.889 141.143C201.113 143.62 201.261 146.131 201.355 148.598C201.366 148.904 201.377 149.207 201.389 149.511C201.501 153.063 201.501 156.514 201.445 159.634Z" fill="#120283"/>
<path d="M114.913 144.753C114.716 144.549 114.455 144.435 114.184 144.435C113.913 144.435 113.652 144.549 113.455 144.753C112.77 145.467 111.848 146.543 111.848 147.168C111.848 147.794 112.8 148.904 113.487 149.619C113.676 149.813 113.925 149.92 114.184 149.92C114.443 149.92 114.692 149.813 114.88 149.619C115.568 148.904 116.521 147.805 116.521 147.168C116.521 146.53 115.598 145.467 114.913 144.753Z" fill="#B036CE"/>
<path d="M130.11 144.753C130.023 144.653 129.917 144.573 129.801 144.519C129.684 144.464 129.558 144.435 129.431 144.435C129.305 144.435 129.179 144.464 129.062 144.519C128.946 144.573 128.84 144.653 128.753 144.753C128.115 145.467 127.257 146.541 127.257 147.168C127.257 147.794 128.147 148.904 128.784 149.619C128.868 149.714 128.968 149.79 129.079 149.842C129.191 149.894 129.311 149.92 129.431 149.92C129.552 149.92 129.672 149.894 129.783 149.842C129.895 149.79 129.995 149.714 130.079 149.619C130.719 148.904 131.606 147.805 131.606 147.168C131.606 146.53 130.748 145.467 130.11 144.753Z" fill="#B036CE"/>
<path d="M145.584 144.753C145.388 144.549 145.127 144.435 144.856 144.435C144.585 144.435 144.324 144.549 144.128 144.753C143.441 145.467 142.52 146.541 142.52 147.168C142.52 147.794 143.471 148.904 144.16 149.619C144.349 149.812 144.597 149.92 144.856 149.92C145.114 149.92 145.363 149.812 145.552 149.619C146.241 148.904 147.192 147.805 147.192 147.168C147.192 146.53 146.271 145.467 145.584 144.753Z" fill="#B036CE"/>
<path d="M160.781 144.753C160.693 144.653 160.588 144.573 160.471 144.519C160.355 144.464 160.229 144.436 160.103 144.436C159.976 144.436 159.85 144.464 159.734 144.519C159.617 144.573 159.512 144.653 159.425 144.753C158.786 145.467 157.928 146.543 157.928 147.168C157.928 147.794 158.817 148.904 159.454 149.619C159.538 149.714 159.639 149.79 159.75 149.842C159.861 149.894 159.981 149.921 160.102 149.921C160.223 149.921 160.343 149.894 160.454 149.842C160.565 149.79 160.666 149.714 160.75 149.619C161.391 148.904 162.276 147.805 162.276 147.168C162.276 146.53 161.418 145.467 160.781 144.753Z" fill="#B036CE"/>
<path d="M176.254 144.753C176.058 144.549 175.797 144.435 175.526 144.435C175.255 144.435 174.994 144.549 174.797 144.753C174.111 145.467 173.189 146.541 173.189 147.168C173.189 147.794 174.141 148.904 174.83 149.619C175.019 149.812 175.267 149.92 175.526 149.92C175.784 149.92 176.033 149.812 176.222 149.619C176.911 148.904 177.862 147.805 177.862 147.168C177.862 146.53 176.94 145.467 176.254 144.753Z" fill="#B036CE"/>
<path d="M191.452 144.753C191.364 144.653 191.259 144.573 191.142 144.519C191.026 144.464 190.9 144.436 190.774 144.436C190.647 144.436 190.521 144.464 190.405 144.519C190.288 144.573 190.183 144.653 190.095 144.753C189.458 145.467 188.6 146.543 188.6 147.168C188.6 147.794 189.489 148.904 190.127 149.619C190.21 149.714 190.311 149.79 190.422 149.842C190.534 149.894 190.653 149.921 190.774 149.921C190.895 149.921 191.015 149.894 191.126 149.842C191.238 149.79 191.338 149.714 191.422 149.619C192.062 148.904 192.948 147.805 192.948 147.168C192.948 146.53 192.089 145.467 191.452 144.753Z" fill="#B036CE"/>
<path d="M108.638 135.771C108.638 136.407 107.749 137.508 107.113 138.222C107.03 138.318 106.93 138.395 106.818 138.448C106.707 138.501 106.587 138.529 106.465 138.529C106.344 138.529 106.224 138.501 106.113 138.448C106.001 138.395 105.901 138.318 105.818 138.222C105.593 137.97 105.341 137.675 105.106 137.369C105.185 136.426 105.329 135.127 105.593 133.579L105.787 133.359C105.874 133.258 105.98 133.178 106.096 133.124C106.213 133.069 106.338 133.04 106.465 133.04C106.591 133.04 106.717 133.069 106.833 133.124C106.95 133.178 107.055 133.258 107.143 133.359C107.78 134.071 108.638 135.147 108.638 135.771Z" fill="#B036CE"/>
<path d="M122.619 133.356C122.422 133.152 122.161 133.038 121.889 133.038C121.618 133.038 121.357 133.152 121.16 133.356C120.476 134.071 119.552 135.145 119.552 135.773C119.552 136.401 120.505 137.509 121.193 138.221C121.381 138.416 121.63 138.524 121.889 138.524C122.148 138.524 122.398 138.416 122.586 138.221C123.274 137.509 124.225 136.408 124.225 135.773C124.225 135.137 123.303 134.071 122.619 133.356Z" fill="#B036CE"/>
<path d="M137.814 133.356C137.726 133.257 137.621 133.177 137.504 133.122C137.388 133.067 137.263 133.038 137.136 133.038C137.009 133.038 136.884 133.067 136.767 133.122C136.651 133.177 136.545 133.257 136.458 133.356C135.82 134.071 134.962 135.145 134.962 135.773C134.962 136.401 135.852 137.509 136.489 138.221C136.572 138.318 136.672 138.395 136.784 138.448C136.895 138.5 137.015 138.528 137.137 138.528C137.258 138.528 137.378 138.5 137.489 138.448C137.601 138.395 137.701 138.318 137.784 138.221C138.424 137.509 139.311 136.408 139.311 135.773C139.311 135.137 138.453 134.071 137.814 133.356Z" fill="#B036CE"/>
<path d="M153.289 133.356C153.092 133.152 152.832 133.038 152.56 133.038C152.289 133.038 152.028 133.152 151.831 133.356C151.146 134.071 150.225 135.145 150.225 135.773C150.225 136.401 151.176 137.509 151.864 138.221C152.052 138.416 152.301 138.524 152.56 138.524C152.819 138.524 153.068 138.416 153.257 138.221C153.945 137.509 154.896 136.408 154.896 135.773C154.896 135.137 153.974 134.071 153.289 133.356Z" fill="#B036CE"/>
<path d="M168.486 133.356C168.399 133.257 168.293 133.177 168.176 133.122C168.06 133.067 167.934 133.038 167.807 133.038C167.681 133.038 167.555 133.067 167.438 133.122C167.322 133.177 167.216 133.257 167.129 133.356C166.491 134.071 165.633 135.146 165.633 135.773C165.633 136.401 166.523 137.509 167.16 138.222C167.243 138.318 167.343 138.395 167.455 138.448C167.566 138.501 167.686 138.528 167.807 138.528C167.929 138.528 168.049 138.501 168.16 138.448C168.272 138.395 168.372 138.318 168.455 138.222C169.095 137.509 169.982 136.408 169.982 135.773C169.982 135.137 169.118 134.071 168.486 133.356Z" fill="#B036CE"/>
<path d="M183.959 133.356C183.763 133.152 183.502 133.038 183.231 133.038C182.96 133.038 182.699 133.152 182.503 133.356C181.816 134.071 180.895 135.146 180.895 135.773C180.895 136.401 181.846 137.509 182.535 138.222C182.723 138.416 182.972 138.524 183.231 138.524C183.49 138.524 183.739 138.416 183.927 138.222C184.616 137.509 185.567 136.408 185.567 135.773C185.567 135.137 184.646 134.071 183.959 133.356Z" fill="#B036CE"/>
<path d="M200.389 136.553C200.024 137.156 199.602 137.716 199.13 138.221C199.047 138.317 198.946 138.394 198.835 138.445C198.723 138.498 198.603 138.524 198.482 138.524C198.361 138.524 198.241 138.498 198.13 138.445C198.018 138.394 197.917 138.317 197.834 138.221C197.193 137.508 196.307 136.406 196.307 135.771C196.307 135.136 197.165 134.071 197.804 133.356C197.892 133.257 197.997 133.177 198.113 133.122C198.23 133.067 198.355 133.038 198.482 133.038C198.609 133.038 198.734 133.067 198.851 133.122C198.967 133.177 199.072 133.257 199.16 133.356C199.493 133.724 199.806 134.114 200.095 134.524C200.199 135.197 200.295 135.87 200.389 136.553Z" fill="#B036CE"/>
<path d="M114.913 123.258C114.716 123.054 114.455 122.94 114.184 122.94C113.913 122.94 113.652 123.054 113.455 123.258C112.77 123.973 111.848 125.047 111.848 125.674C111.848 126.302 112.8 127.41 113.487 128.123C113.676 128.318 113.925 128.426 114.184 128.426C114.443 128.426 114.692 128.318 114.88 128.123C115.568 127.41 116.521 126.31 116.521 125.674C116.521 125.039 115.598 123.979 114.913 123.258Z" fill="#B036CE"/>
<path d="M130.11 123.258C130.023 123.159 129.917 123.078 129.801 123.024C129.684 122.969 129.558 122.94 129.431 122.94C129.305 122.94 129.179 122.969 129.062 123.024C128.946 123.078 128.84 123.159 128.753 123.258C128.115 123.973 127.257 125.048 127.257 125.675C127.257 126.303 128.147 127.41 128.784 128.124C128.867 128.22 128.967 128.297 129.079 128.351C129.19 128.403 129.31 128.43 129.431 128.43C129.553 128.43 129.673 128.403 129.784 128.351C129.896 128.297 129.996 128.22 130.079 128.124C130.719 127.41 131.606 126.31 131.606 125.675C131.606 125.039 130.748 123.979 130.11 123.258Z" fill="#B036CE"/>
<path d="M145.584 123.258C145.388 123.054 145.127 122.94 144.856 122.94C144.585 122.94 144.324 123.054 144.128 123.258C143.441 123.973 142.52 125.048 142.52 125.675C142.52 126.303 143.471 127.41 144.16 128.124C144.348 128.318 144.597 128.426 144.856 128.426C145.115 128.426 145.364 128.318 145.552 128.124C146.241 127.41 147.192 126.31 147.192 125.675C147.192 125.039 146.271 123.979 145.584 123.258Z" fill="#B036CE"/>
<path d="M160.781 123.258C160.693 123.159 160.588 123.078 160.471 123.024C160.355 122.969 160.229 122.94 160.103 122.94C159.976 122.94 159.85 122.969 159.734 123.024C159.617 123.078 159.512 123.159 159.425 123.258C158.786 123.973 157.928 125.048 157.928 125.675C157.928 126.303 158.817 127.41 159.454 128.124C159.537 128.22 159.638 128.297 159.749 128.35C159.86 128.403 159.981 128.43 160.102 128.43C160.223 128.43 160.343 128.403 160.455 128.35C160.566 128.297 160.666 128.22 160.75 128.124C161.391 127.41 162.276 126.31 162.276 125.675C162.276 125.039 161.418 123.979 160.781 123.258Z" fill="#B036CE"/>
<path d="M176.254 123.258C176.058 123.054 175.797 122.94 175.526 122.94C175.255 122.94 174.994 123.054 174.797 123.258C174.111 123.973 173.189 125.048 173.189 125.675C173.189 126.303 174.141 127.41 174.83 128.124C175.018 128.318 175.267 128.426 175.526 128.426C175.785 128.426 176.034 128.318 176.222 128.124C176.911 127.41 177.862 126.31 177.862 125.675C177.862 125.039 176.94 123.979 176.254 123.258Z" fill="#B036CE"/>
<path d="M191.452 123.258C191.364 123.159 191.259 123.078 191.142 123.024C191.026 122.969 190.9 122.94 190.774 122.94C190.647 122.94 190.521 122.969 190.405 123.024C190.288 123.078 190.183 123.159 190.095 123.258C189.458 123.973 188.6 125.048 188.6 125.675C188.6 126.303 189.489 127.41 190.127 128.124C190.21 128.22 190.31 128.297 190.421 128.35C190.533 128.403 190.653 128.43 190.774 128.43C190.896 128.43 191.016 128.403 191.127 128.35C191.238 128.297 191.339 128.22 191.422 128.124C192.062 127.41 192.948 126.31 192.948 125.675C192.948 125.039 192.089 123.979 191.452 123.258Z" fill="#B036CE"/>
<path d="M122.619 111.864C122.422 111.659 122.161 111.543 121.889 111.543C121.618 111.543 121.357 111.659 121.16 111.864C120.476 112.576 119.552 113.652 119.552 114.277C119.552 114.904 120.505 116.014 121.193 116.726C121.381 116.921 121.63 117.03 121.889 117.03C122.148 117.03 122.398 116.921 122.586 116.726C123.274 116.014 124.225 114.913 124.225 114.277C124.225 113.642 123.303 112.576 122.619 111.864Z" fill="#B036CE"/>
<path d="M137.814 111.864C137.726 111.763 137.621 111.682 137.505 111.627C137.388 111.572 137.263 111.544 137.136 111.544C137.009 111.544 136.883 111.572 136.767 111.627C136.65 111.682 136.545 111.763 136.458 111.864C135.82 112.576 134.962 113.652 134.962 114.278C134.962 114.904 135.852 116.014 136.489 116.727C136.572 116.823 136.672 116.9 136.784 116.953C136.895 117.007 137.015 117.033 137.137 117.033C137.258 117.033 137.378 117.007 137.489 116.953C137.601 116.9 137.701 116.823 137.784 116.727C138.424 116.014 139.311 114.913 139.311 114.278C139.311 113.642 138.453 112.576 137.814 111.864Z" fill="#B036CE"/>
<path d="M153.289 111.864C153.093 111.659 152.832 111.543 152.56 111.543C152.289 111.543 152.028 111.659 151.831 111.864C151.146 112.576 150.225 113.652 150.225 114.277C150.225 114.904 151.176 116.014 151.864 116.726C152.052 116.921 152.301 117.03 152.56 117.03C152.819 117.03 153.068 116.921 153.257 116.726C153.945 116.014 154.896 114.913 154.896 114.277C154.896 113.642 153.974 112.576 153.289 111.864Z" fill="#B036CE"/>
<path d="M168.486 111.864C168.399 111.763 168.293 111.682 168.177 111.627C168.06 111.572 167.934 111.544 167.807 111.544C167.68 111.544 167.555 111.572 167.438 111.627C167.321 111.682 167.216 111.763 167.129 111.864C166.491 112.576 165.633 113.652 165.633 114.278C165.633 114.904 166.523 116.014 167.16 116.727C167.243 116.823 167.343 116.9 167.455 116.953C167.566 117.007 167.686 117.033 167.807 117.033C167.929 117.033 168.049 117.007 168.16 116.953C168.272 116.9 168.372 116.823 168.455 116.727C169.095 116.014 169.982 114.913 169.982 114.278C169.982 113.642 169.118 112.576 168.486 111.864Z" fill="#B036CE"/>
<path d="M183.959 111.864C183.763 111.659 183.502 111.544 183.231 111.544C182.96 111.544 182.699 111.659 182.503 111.864C181.816 112.576 180.895 113.652 180.895 114.278C180.895 114.904 181.846 116.014 182.535 116.727C182.723 116.921 182.972 117.03 183.231 117.03C183.49 117.03 183.739 116.921 183.927 116.727C184.616 116.014 185.567 114.913 185.567 114.278C185.567 113.642 184.646 112.576 183.959 111.864Z" fill="#B036CE"/>
<path d="M131.606 104.18C131.606 104.817 130.716 105.916 130.081 106.628C129.997 106.724 129.896 106.801 129.785 106.853C129.673 106.905 129.553 106.932 129.432 106.932C129.311 106.932 129.191 106.905 129.08 106.853C128.968 106.801 128.868 106.724 128.784 106.628C128.142 105.916 127.257 104.817 127.257 104.18C127.259 104.079 127.276 103.98 127.308 103.885C128.41 103.406 129.568 102.968 130.782 102.57C131.225 103.146 131.606 103.764 131.606 104.18Z" fill="#B036CE"/>
<path d="M177.861 104.287C177.766 104.937 176.88 105.955 176.231 106.628C176.043 106.823 175.794 106.932 175.535 106.932C175.276 106.932 175.027 106.823 174.839 106.628C174.15 105.916 173.2 104.817 173.2 104.18C173.2 103.741 173.657 103.077 174.164 102.474C175.257 102.97 176.511 103.572 177.861 104.287Z" fill="#B036CE"/>
<path d="M169.641 100.676C169.429 100.934 154.333 119.246 135.155 101.404C136.219 101.177 137.323 100.982 138.466 100.821L169.641 100.676Z" fill="#120283"/>
<path d="M169.642 100.675C166.189 103.827 162.843 105.742 159.692 106.786H159.67C149.275 110.201 140.996 104.077 137.77 101.117C138.004 101.018 138.238 100.92 138.466 100.816C139.072 100.552 139.656 100.231 140.212 99.8568C142.607 98.2472 144.176 96.0198 145.198 93.6787C147.681 87.9705 146.932 81.5501 146.932 81.5501H161.516C161.351 83.6886 161.371 85.8393 161.576 87.9738C161.753 89.8954 162.103 91.7359 162.761 93.43C163.889 96.3922 165.952 98.9155 169.642 100.675Z" fill="#E8ECF8"/>
<path d="M161.571 87.9701C160.717 89.5731 159.496 90.7047 157.761 90.8641C150.966 91.4835 147.143 84.1592 147.223 83.4829L147.576 81.545H161.507C161.344 83.6841 161.365 85.8354 161.571 87.9701Z" fill="#120283"/>
<path d="M170.722 67.5434C170.722 65.4559 169.376 63.7618 167.718 63.7618C166.06 63.7618 164.714 65.4559 164.714 67.5434C164.714 69.6311 166.058 72.2584 167.718 72.2584C169.378 72.2584 170.722 69.6327 170.722 67.5434Z" fill="#E8ECF8"/>
<path d="M166.93 68.8396L166.72 68.8169C166.72 68.7909 166.976 66.3261 169.063 66.2659V66.4984C167.167 66.5537 166.933 68.8169 166.93 68.8396Z" fill="#120283"/>
<path d="M168.99 68.4899C168.634 68.0869 168.271 67.8967 167.91 67.9179C167.363 67.952 166.991 68.4737 166.988 68.4785L166.819 68.3372C166.837 68.3128 167.25 67.7261 167.895 67.687C168.329 67.6594 168.741 67.8756 169.143 68.329L168.99 68.4899Z" fill="#120283"/>
<path d="M137.36 67.5434C137.36 65.4559 138.704 63.7618 140.364 63.7618C142.024 63.7618 143.366 65.4559 143.366 67.5434C143.366 69.6311 142.022 72.2584 140.364 72.2584C138.705 72.2584 137.36 69.6327 137.36 67.5434Z" fill="#E8ECF8"/>
<path d="M141.484 68.8396L141.695 68.8169C141.695 68.7909 141.438 66.3261 139.353 66.2659V66.4984C141.248 66.5537 141.482 68.8169 141.484 68.8396Z" fill="#120283"/>
<path d="M139.425 68.4899C139.78 68.0869 140.143 67.8967 140.505 67.9179C141.052 67.952 141.422 68.4737 141.427 68.4785L141.596 68.3372C141.578 68.3128 141.165 67.7261 140.518 67.687C140.084 67.6594 139.672 67.8756 139.272 68.329L139.425 68.4899Z" fill="#120283"/>
<path d="M162.63 82.0637C160.407 84.8684 157.591 86.6746 154.206 86.616C150.83 86.6763 148.01 84.8699 145.784 82.0637C145.772 82.045 145.759 82.0276 145.744 82.0118C141.757 76.484 140.946 68.4329 142.025 58.8471C142.802 51.9504 148.73 49.2776 152.02 48.3167C153.452 47.8989 154.96 47.8989 156.392 48.3167C159.684 49.2776 165.61 51.9504 166.388 58.8471C167.472 68.4622 166.652 76.536 162.63 82.0637Z" fill="#E8ECF8"/>
<path d="M158.755 68.4752C159.154 68.4752 159.478 68.12 159.478 67.6819C159.478 67.2437 159.154 66.8885 158.755 66.8885C158.355 66.8885 158.031 67.2437 158.031 67.6819C158.031 68.12 158.355 68.4752 158.755 68.4752Z" fill="#120283"/>
<path d="M149.202 68.4752C149.601 68.4752 149.925 68.12 149.925 67.6819C149.925 67.2437 149.601 66.8885 149.202 66.8885C148.802 66.8885 148.478 67.2437 148.478 67.6819C148.478 68.12 148.802 68.4752 149.202 68.4752Z" fill="#120283"/>
<path d="M162.615 61.0893C162.615 61.0893 160.879 61.1675 158.603 61.187C156.327 61.2065 155.737 61.1675 155.935 60.1545C156.134 59.1414 158.425 59.1593 159.849 59.504C161.274 59.8487 162.615 61.0893 162.615 61.0893Z" fill="#120283"/>
<path d="M145.171 61.0893C145.171 61.0893 146.905 61.1675 149.183 61.187C151.461 61.2065 152.05 61.1675 151.851 60.1545C151.652 59.1414 149.363 59.1593 147.937 59.504C146.511 59.8487 145.171 61.0893 145.171 61.0893Z" fill="#120283"/>
<path d="M153.721 73.2536C153.462 73.2536 153.206 73.2081 153.063 73.0634C153.015 73.0134 152.979 72.9507 152.959 72.8813C152.94 72.8118 152.936 72.738 152.949 72.6666C153.055 71.9383 153.441 69.0476 153.446 69.0184L153.655 69.0525C153.655 69.0818 153.265 71.979 153.16 72.7025C153.151 72.7359 153.151 72.7713 153.16 72.8047C153.168 72.8383 153.184 72.8687 153.207 72.8927C153.406 73.0942 154.096 73.0179 154.482 72.9203L154.529 73.148C154.264 73.2127 153.993 73.2481 153.721 73.2536Z" fill="#120283"/>
<path d="M154.446 74.9526C154.188 74.9562 153.93 74.9305 153.677 74.8762C153.661 74.8725 153.646 74.8651 153.633 74.8548C153.62 74.8444 153.609 74.8312 153.6 74.816C153.592 74.8007 153.587 74.7838 153.585 74.7662C153.582 74.7486 153.584 74.7307 153.588 74.7136C153.592 74.6964 153.598 74.6801 153.608 74.6658C153.617 74.6514 153.629 74.6394 153.643 74.6303C153.657 74.6212 153.672 74.6152 153.688 74.6128C153.704 74.6103 153.721 74.6114 153.736 74.616C153.844 74.6436 156.404 75.2534 157.738 72.5967C157.745 72.5817 157.755 72.5684 157.768 72.5577C157.78 72.5469 157.794 72.5388 157.809 72.534C157.824 72.5292 157.84 72.5276 157.855 72.5295C157.871 72.5314 157.886 72.5365 157.899 72.5447C157.913 72.553 157.925 72.564 157.935 72.5774C157.945 72.5908 157.952 72.6061 157.957 72.6225C157.961 72.639 157.962 72.6563 157.961 72.6733C157.959 72.6903 157.954 72.7069 157.947 72.7219C156.982 74.6372 155.392 74.9526 154.446 74.9526Z" fill="#120283"/>
<path d="M156.076 75.5022C156.045 75.5033 156.016 75.4917 155.993 75.4698C155.971 75.448 155.956 75.4174 155.954 75.3843C155.951 75.3514 155.96 75.3185 155.978 75.2923C155.997 75.2662 156.024 75.2487 156.053 75.2436C156.231 75.2066 156.402 75.1367 156.559 75.0371C156.572 75.0282 156.587 75.0224 156.603 75.02C156.618 75.0175 156.634 75.0184 156.649 75.0227C156.664 75.0269 156.678 75.0344 156.691 75.0447C156.703 75.0549 156.714 75.0679 156.722 75.0827C156.738 75.1125 156.742 75.1479 156.734 75.1814C156.727 75.2148 156.707 75.2436 156.68 75.2616C156.5 75.376 156.304 75.4562 156.099 75.499L156.076 75.5022Z" fill="#120283"/>
<path d="M165.6 54.6752L166.394 67.6818L167.249 63.2921C167.249 63.2921 169.794 57.4716 165.6 54.6752Z" fill="#120283"/>
<path d="M142.813 53.155L141.694 67.6783L141.163 63.2886C141.163 63.2886 138.619 57.4715 142.813 53.155Z" fill="#120283"/>
<path d="M169.642 100.674C166.189 103.827 162.843 105.742 159.692 106.786H159.67C149.275 110.201 140.996 104.077 137.77 101.117C138.004 101.017 138.238 100.92 138.466 100.816C139.072 100.551 139.656 100.23 140.212 99.8566C142.607 98.2469 144.176 96.0195 145.198 93.6783C148.365 94.914 155.256 96.7675 162.755 93.4296C163.889 96.3919 165.952 98.9152 169.642 100.674Z" fill="#E8ECF8"/>
<path d="M169.139 64.214C162.227 68.9467 158.793 59.3364 158.752 54.6769C158.71 50.0172 154.206 50.2383 154.206 50.2383C151.851 49.718 148.586 52.0869 149.2 56.7074C149.813 61.3281 147.237 63.1783 144.036 64.2872C140.835 65.3959 138.896 63.271 138.896 63.271L139.089 62.1687C141.016 62.3313 145.293 62.0808 146.843 57.1741C146.738 57.3074 144.204 62.9929 139.184 61.6305L141.693 47.3719L154.258 43.9577H157.948C157.948 43.9577 164.766 46.915 166.716 51.8138C168.666 56.7124 167.715 62.2077 167.715 62.2077C164.634 63.0092 162.222 58.0049 162.153 57.8716C164.259 63.7375 169.067 62.5995 169.067 62.5995L169.139 64.214Z" fill="#120283"/>
<path d="M248.418 52.3965C248.418 52.3965 257.433 47.6015 262.253 59.096C267.074 70.5906 266 80.0653 272.01 84.8199C278.02 89.5745 275.288 96.77 271.873 101.584C268.459 106.399 258.964 111.487 250.734 106.621C242.505 101.754 236.769 108.608 230.623 101.584C224.476 94.5613 224.548 87.9487 228.268 83.3139C231.987 78.6792 233.705 45.8962 248.418 52.3965Z" fill="#120283"/>
<path d="M293.952 140.859C293.952 140.873 293.952 140.887 293.952 140.902C293.908 141.672 293.86 142.431 293.815 143.181C293.666 145.59 293.51 147.902 293.348 150.113C291.736 172.179 289.66 184.299 289.66 184.299H209.163C209.163 184.299 206.166 165.294 205.403 149.226C205.13 143.47 205.143 138.092 205.684 134.091C206.975 124.584 211.951 118.486 217.46 114.594L217.497 114.567C218.2 114.071 218.913 113.612 219.628 113.187C219.949 112.997 220.267 112.813 220.584 112.634C221.979 111.862 223.414 111.178 224.881 110.589C225.732 110.246 226.56 109.944 227.355 109.679C227.546 109.616 227.734 109.555 227.92 109.496C229.354 109.047 230.652 108.709 231.745 108.467C232.881 108.207 234.029 108.011 235.184 107.879L262.683 107.75H262.705C264.204 108.016 265.69 108.366 267.156 108.799H267.163C268.137 109.08 269.231 109.426 270.405 109.848L270.548 109.899C271.308 110.173 272.1 110.479 272.915 110.818C274.059 111.293 275.247 111.835 276.449 112.454C277.114 112.794 277.783 113.159 278.455 113.55C278.785 113.74 279.114 113.937 279.443 114.14C287.294 118.988 294.754 127.204 293.952 140.859Z" fill="#BF0830"/>
<path d="M262.696 107.756C259.65 110.537 256.698 112.226 253.92 113.15H253.901C244.735 116.167 237.432 110.763 234.588 108.15C234.794 108.065 234.998 107.978 235.203 107.888C235.737 107.654 236.252 107.371 236.742 107.042C243.981 102.167 242.667 88.7802 242.667 88.7802H255.53C255.386 90.6669 255.403 92.5641 255.582 94.4473C256.015 99.1104 257.579 105.32 262.696 107.756Z" fill="#E8ECF8"/>
<path d="M255.576 94.4474C254.824 95.8605 253.744 96.8584 252.217 96.9948C246.224 97.5402 242.853 91.0819 242.929 90.4854L243.24 88.7757H255.534C255.386 90.6636 255.4 92.5625 255.576 94.4474Z" fill="#120283"/>
<path d="M263.646 76.4328C263.646 74.5897 262.46 73.0973 260.998 73.0973C259.535 73.0973 258.348 74.5957 258.348 76.4328C258.348 78.2699 259.533 80.5895 260.998 80.5895C262.462 80.5895 263.646 78.2819 263.646 76.4328Z" fill="#E8ECF8"/>
<path d="M260.303 77.5748L260.118 77.5538C260.118 77.5327 260.344 75.3586 262.184 75.3061V75.5114C260.511 75.5593 260.305 77.5552 260.303 77.5748Z" fill="#120283"/>
<path d="M262.119 77.266C261.807 76.9109 261.487 76.7431 261.163 76.7611C260.681 76.791 260.353 77.2525 260.351 77.257L260.202 77.1327C260.318 76.9728 260.461 76.8395 260.624 76.7406C260.787 76.6416 260.966 76.5788 261.151 76.5558C261.533 76.5334 261.897 76.7221 262.251 77.1238L262.119 77.266Z" fill="#120283"/>
<path d="M234.225 76.4328C234.225 74.5897 235.41 73.0973 236.873 73.0973C238.336 73.0973 239.523 74.5957 239.523 76.4328C239.523 78.2699 238.336 80.5895 236.873 80.5895C235.41 80.5895 234.225 78.2819 234.225 76.4328Z" fill="#E8ECF8"/>
<path d="M237.861 77.5748L238.048 77.5538C238.048 77.5327 237.821 75.3586 235.981 75.3061V75.5114C237.653 75.5593 237.859 77.5552 237.861 77.5748Z" fill="#120283"/>
<path d="M236.046 77.266C236.358 76.9109 236.679 76.7431 237.002 76.7611C237.485 76.791 237.812 77.2525 237.821 77.257L237.97 77.1327C237.954 77.1103 237.589 76.5932 237.014 76.5558C236.632 76.5334 236.268 76.7221 235.915 77.1238L236.046 77.266Z" fill="#120283"/>
<path d="M256.509 89.2372C254.547 91.7111 252.063 93.304 249.081 93.25C246.104 93.304 243.618 91.7111 241.653 89.2372C241.642 89.2209 241.631 89.2054 241.618 89.1907C238.102 84.3162 237.383 77.2151 238.34 68.7624C239.296 60.2812 249.083 59.042 249.083 59.042C249.083 59.042 258.871 60.2812 259.826 68.7624C260.781 77.2436 260.057 84.3627 256.509 89.2372Z" fill="#E8ECF8"/>
<path d="M252.527 78.0556C252.961 78.0556 253.312 77.6699 253.312 77.194C253.312 76.7181 252.961 76.3324 252.527 76.3324C252.093 76.3324 251.741 76.7181 251.741 77.194C251.741 77.6699 252.093 78.0556 252.527 78.0556Z" fill="#120283"/>
<path d="M245.02 78.0556C245.454 78.0556 245.805 77.6699 245.805 77.194C245.805 76.7181 245.454 76.3324 245.02 76.3324C244.586 76.3324 244.234 76.7181 244.234 77.194C244.234 77.6699 244.586 78.0556 245.02 78.0556Z" fill="#120283"/>
<path d="M257.177 70.5066C257.177 70.5066 255.513 70.5545 253.326 70.5665C251.139 70.5784 250.577 70.5545 250.772 69.9386C250.967 69.3228 253.16 69.3392 254.528 69.549C255.45 69.7199 256.343 70.0427 257.177 70.5066Z" fill="#120283"/>
<path d="M240.435 70.5066C240.435 70.5066 242.1 70.5545 244.287 70.5665C246.473 70.5784 247.036 70.5545 246.841 69.9386C246.646 69.3228 244.452 69.3392 243.085 69.549C242.162 69.7198 241.269 70.0425 240.435 70.5066Z" fill="#120283"/>
<path d="M248.654 81.9232C248.426 81.9232 248.199 81.8827 248.073 81.7539C248.03 81.7102 247.999 81.655 247.981 81.5938C247.964 81.5326 247.961 81.4674 247.973 81.4048C248.066 80.7635 248.406 78.2131 248.411 78.1875L248.595 78.2176C248.595 78.2431 248.251 80.7934 248.158 81.4378C248.151 81.4671 248.151 81.498 248.158 81.5273C248.166 81.5565 248.18 81.583 248.2 81.6041C248.375 81.7824 248.982 81.7149 249.324 81.6295L249.367 81.8289C249.133 81.8868 248.894 81.9184 248.654 81.9232Z" fill="#120283"/>
<path d="M249.25 82.6468C249.25 82.6468 251.237 83.1713 252.125 82.1223C252.125 82.1223 251.737 84.4076 249.25 82.6468Z" fill="#E8ECF8"/>
<path d="M259.129 65.0839L260.112 80.3051L260.58 72.6856C260.58 72.6856 262.828 67.5489 259.129 65.0839Z" fill="#120283"/>
<path d="M239.034 65.0839L238.244 79.8841L237.579 72.6915C237.579 72.6915 235.334 67.5489 239.034 65.0839Z" fill="#120283"/>
<path d="M238.047 72.6944C238.047 72.6944 242.734 70.2968 245.466 65.0838C248.198 59.8707 248.286 59.2713 250.734 65.4898C253.182 71.7084 257.114 78.6762 262.696 73.0975C262.696 73.0975 261.515 64.0769 259.808 61.0005C258.101 57.9243 250.781 54.7759 249.249 54.7759C247.718 54.7759 237.709 57.623 237.011 60.62C236.313 63.6168 238.047 72.6944 238.047 72.6944Z" fill="#120283"/>
<path d="M266.395 108.597C262.464 112.262 256.33 116.951 249.705 118.121C242.251 119.439 235.784 112.932 232.257 108.369C234.075 107.992 235.202 107.887 235.202 107.887L262.701 107.758H262.722C262.911 107.801 264.299 108.029 266.395 108.597Z" fill="#E8ECF8"/>
<path d="M293.952 140.859C293.952 140.873 293.952 140.887 293.952 140.902C288.121 117.273 267.609 108.985 267.18 108.817C268.154 109.098 269.248 109.444 270.421 109.866L270.564 109.918C271.324 110.192 272.116 110.497 272.932 110.836C274.075 111.311 275.263 111.853 276.465 112.473C277.13 112.812 277.799 113.177 278.472 113.567C278.801 113.757 279.13 113.956 279.459 114.158C287.294 118.988 294.754 127.204 293.952 140.859Z" fill="#120283"/>
</g>
<defs>
<linearGradient id="paint0_linear_2_2" x1="327.585" y1="31.7193" x2="145.772" y2="100.652" gradientUnits="userSpaceOnUse">
<stop stop-color="#E3E7F6"/>
<stop offset="1" stop-color="#E3E7F6" stop-opacity="0"/>
</linearGradient>
<linearGradient id="paint1_linear_2_2" x1="215.585" y1="3.19686" x2="33.7717" y2="72.1291" gradientUnits="userSpaceOnUse">
<stop stop-color="#E3E7F6"/>
<stop offset="1" stop-color="#E3E7F6" stop-opacity="0"/>
</linearGradient>
<linearGradient id="paint2_linear_2_2" x1="117.585" y1="39.3984" x2="-64.2283" y2="108.331" gradientUnits="userSpaceOnUse">
<stop stop-color="#E3E7F6"/>
<stop offset="1" stop-color="#E3E7F6" stop-opacity="0"/>
</linearGradient>
<clipPath id="clip0_2_2">
<rect width="317" height="147" fill="white"/>
</clipPath>
</defs>
</svg>
