<svg width="317" height="147" viewBox="0 0 317 147" fill="none" xmlns="http://www.w3.org/2000/svg">
<g clip-path="url(#clip0_3_2)">
<path d="M155.422 274.776C223.129 274.776 278.016 213.267 278.016 137.388C278.016 61.5109 223.129 0 155.422 0C87.7156 0 32.8285 61.5109 32.8285 137.388C32.8285 213.267 87.7156 274.776 155.422 274.776Z" fill="url(#paint0_linear_3_2)"/>
<path d="M144.875 88.1812L99.6375 147.668L100.598 148.556L145.836 89.0686L144.875 88.1812Z" fill="#120283"/>
<path d="M17.0282 121.15L16.6512 122.468L99.7822 151.377L100.159 150.059L17.0282 121.15Z" fill="#120283"/>
<path d="M18.0669 138.265C26.2867 137.523 32.4046 129.577 31.7317 120.517C31.0588 111.456 23.8499 104.714 15.6301 105.455C7.41031 106.197 1.29235 114.142 1.96525 123.203C2.63814 132.262 9.8471 139.006 18.0669 138.265Z" fill="#353A85"/>
<path d="M68.7267 53.4592L67.5549 53.9497L99.6177 147.033L100.79 146.543L68.7267 53.4592Z" fill="#120283"/>
<path d="M69.8837 53.1838L69.4014 54.4589L145.117 89.2497L145.6 87.9746L69.8837 53.1838Z" fill="#120283"/>
<path d="M219.676 46.5556L143.493 87.893L144.046 89.1325L220.23 47.7951L219.676 46.5556Z" fill="#120283"/>
<path d="M145.687 88.0267L145.032 89.2037L225.118 143.469L225.775 142.292L145.687 88.0267Z" fill="#120283"/>
<path d="M298.143 77.6366L225.055 142.362L225.839 143.44L298.927 78.7135L298.143 77.6366Z" fill="#120283"/>
<path d="M154.905 112.817C169.073 108.893 177.67 93.0513 174.109 77.436C170.548 61.8206 156.176 52.3439 142.01 56.269C127.842 60.1943 119.244 76.035 122.806 91.6505C126.367 107.265 140.739 116.743 154.905 112.817Z" fill="#353A85"/>
<path d="M299.782 98.4969C310.012 97.7342 317.743 87.9755 317.051 76.7004C316.359 65.4253 307.505 56.9034 297.276 57.6661C287.048 58.4287 279.316 68.1874 280.008 79.4625C280.699 90.7377 289.553 99.2596 299.782 98.4969Z" fill="#353A85"/>
<path d="M90.0454 56.4543C91.1643 44.3332 83.1566 33.5072 72.1597 32.2739C61.1627 31.0404 51.3409 39.8667 50.2218 51.988C49.1029 64.1092 57.1106 74.9351 68.1075 76.1685C79.1044 77.4018 88.9263 68.5756 90.0454 56.4543Z" fill="#120283"/>
<path d="M232.374 55.7894C236.689 48.2303 234.628 38.2463 227.771 33.4896C220.912 28.7329 211.855 31.0049 207.538 38.5642C203.223 46.1234 205.285 56.1075 212.143 60.8641C219.001 65.6207 228.058 63.3488 232.374 55.7894Z" fill="#BF0830"/>
<path d="M252.054 163.601C267.426 146.656 267.426 119.186 252.054 102.242C236.682 85.2978 211.759 85.2978 196.387 102.242C181.014 119.186 181.014 146.656 196.387 163.601C211.759 180.544 236.682 180.544 252.054 163.601Z" fill="#120283"/>
<path d="M100.652 164.201C112.833 162.473 121.435 150.185 119.867 136.76C118.298 123.333 107.151 113.85 94.9695 115.58C82.7882 117.309 74.1853 129.596 75.7545 143.022C77.3236 156.449 88.4704 165.932 100.652 164.201Z" fill="#BF0830"/>
<path d="M16.0716 136.406C17.8097 136.531 19.5529 136.276 21.2015 135.656C22.8501 135.037 24.3718 134.066 25.6795 132.799C25.3516 131.427 24.9462 130.079 24.4656 128.764C23.687 126.646 22.2359 124.911 20.3832 123.886L20.4298 123.815C21.1525 122.424 21.5027 120.836 21.4396 119.236C21.4396 117.74 21.1818 116.197 20.3652 114.937C19.9309 114.221 19.3247 113.651 18.6142 113.291C17.9035 112.932 17.1165 112.798 16.3403 112.902C15.5644 113.006 14.8298 113.346 14.2184 113.883C13.607 114.421 13.1427 115.132 12.8773 115.943C12.3044 117.463 12.3651 119.101 12.4763 120.719C12.5491 121.872 12.8434 122.993 13.3392 124.011C12.1744 124.843 11.1584 125.902 10.3419 127.138C9.38934 128.488 9.42874 128.551 8.83069 130.146C8.53705 130.935 8.24698 131.724 7.99274 132.627C10.2172 134.865 13.0671 136.197 16.0716 136.406Z" fill="white"/>
<path d="M69.3757 73.2078C71.6728 73.3742 73.9769 73.039 76.156 72.2215C78.3352 71.4039 80.3464 70.12 82.0742 68.4435C81.6438 66.6291 81.1091 64.8467 80.4735 63.107C79.4439 60.3078 77.5258 58.0168 75.0768 56.6613C75.0768 56.6257 75.1197 56.598 75.1377 56.5665C76.1727 54.7272 76.4878 52.5957 76.4698 50.5155C76.4698 48.542 76.1332 46.4973 75.0373 44.8277C74.4545 43.9394 73.6776 43.2276 72.7787 42.7584C71.8796 42.2893 70.8879 42.0777 69.895 42.1437C67.6856 42.3606 65.9093 44.1606 65.1538 46.1658C64.398 48.1709 64.4769 50.3576 64.6272 52.4812C64.7203 54.0022 65.11 55.4833 65.7697 56.8231C64.2289 57.9187 62.885 59.3184 61.8054 60.9519C60.5484 62.7398 60.5986 62.8228 59.8072 64.9267C59.4204 65.9647 59.0337 67.0344 58.7006 68.2106C61.6385 71.1684 65.4048 72.9314 69.3757 73.2078Z" fill="white"/>
<path d="M96.685 161.691C99.156 161.868 101.634 161.506 103.978 160.625C106.322 159.746 108.485 158.365 110.342 156.559C109.878 154.609 109.302 152.692 108.62 150.821C107.512 147.811 105.449 145.348 102.816 143.89C102.833 143.854 102.858 143.823 102.881 143.787C103.993 141.813 104.334 139.516 104.312 137.282C104.295 135.154 103.955 132.94 102.773 131.168C102.146 130.211 101.309 129.444 100.342 128.938C99.3737 128.431 98.3056 128.204 97.2365 128.274C94.8622 128.511 92.9392 130.446 92.1406 132.616C91.342 134.788 91.4244 137.129 91.5712 139.406C91.6732 141.044 92.0919 142.641 92.7995 144.087C91.1429 145.265 89.6981 146.771 88.5381 148.528C87.1844 150.45 87.2417 150.537 86.3895 152.802C85.9705 153.916 85.555 155.068 85.197 156.335C88.3617 159.51 92.4142 161.399 96.685 161.691Z" fill="white"/>
<path d="M297.593 94.8501C299.727 95.0035 301.865 94.6916 303.887 93.9324C305.91 93.1732 307.778 91.9813 309.382 90.4253C308.98 88.7413 308.482 87.0869 307.892 85.4716C306.934 82.8736 305.152 80.7474 302.878 79.4877C302.878 79.4601 302.919 79.4325 302.933 79.4008C303.896 77.6957 304.186 75.7181 304.172 73.788C304.172 71.9486 303.861 70.058 302.843 68.5106C302.302 67.6846 301.581 67.0224 300.746 66.5857C299.909 66.1489 298.989 65.9516 298.066 66.012C296.017 66.2174 294.37 67.8869 293.668 69.7501C292.967 71.6131 293.038 73.638 293.178 75.6077C293.271 77.0225 293.637 78.3992 294.252 79.6456C292.822 80.6638 291.574 81.963 290.571 83.4783C289.407 85.1361 289.454 85.215 288.719 87.1689C288.361 88.1279 288.004 89.1227 287.692 90.216C290.418 92.9573 293.91 94.592 297.593 94.8501Z" fill="white"/>
<path d="M147.15 109.683C150.129 109.898 153.118 109.462 155.945 108.401C158.772 107.339 161.38 105.673 163.622 103.498C163.061 101.143 162.367 98.8296 161.542 96.5711C160.203 92.9386 157.715 89.9651 154.536 88.203C154.561 88.1608 154.587 88.1198 154.616 88.0807C155.959 85.7125 156.367 82.9257 156.346 80.2258C156.346 77.6562 155.908 75.0117 154.487 72.8447C153.065 70.6777 150.475 69.0909 147.808 69.3554C144.943 69.6435 142.637 71.9763 141.656 74.5776C140.674 77.1786 140.789 80.0246 140.983 82.7876C141.106 84.7653 141.612 86.6911 142.465 88.436C140.581 89.6912 138.913 91.5306 137.32 93.7961C135.725 96.0619 135.758 96.2238 134.73 98.9591C134.225 100.301 133.727 101.691 133.297 103.222C137.114 107.05 142 109.329 147.15 109.683Z" fill="white"/>
<path d="M219.196 60.6125C220.904 60.7339 222.615 60.4826 224.234 59.873C225.852 59.2634 227.347 58.3074 228.629 57.0599C228.308 55.7181 227.911 54.3997 227.439 53.1129C226.675 51.0339 225.252 49.3324 223.433 48.3249C223.446 48.3004 223.461 48.2766 223.476 48.2539C224.187 46.8906 224.53 45.3328 224.468 43.762C224.468 42.2898 224.218 40.778 223.394 39.5385C222.966 38.8389 222.37 38.2835 221.674 37.9333C220.977 37.5832 220.207 37.4522 219.447 37.5548C218.688 37.6573 217.969 37.9895 217.37 38.5143C216.77 39.0392 216.314 39.7365 216.053 40.5292C215.49 42.0174 215.548 43.6436 215.659 45.2185C215.73 46.3504 216.018 47.4526 216.507 48.4513C215.363 49.2635 214.365 50.3019 213.564 51.5142C212.629 52.8445 212.668 52.9036 212.081 54.4706C211.791 55.2364 211.505 56.0495 211.257 56.91C213.444 59.1056 216.244 60.4118 219.196 60.6125Z" fill="white"/>
<path d="M222.094 172.029C226.915 172.378 231.751 171.675 236.325 169.958C240.899 168.243 245.121 165.548 248.747 162.031C247.839 158.223 246.715 154.481 245.381 150.829C243.22 144.955 239.197 140.148 234.058 137.301C234.097 137.235 234.148 137.171 234.184 137.104C236.357 133.248 237.019 128.772 236.988 124.406C236.954 120.254 236.272 115.98 233.98 112.474C231.688 108.969 227.494 106.404 223.182 106.834C218.548 107.296 214.82 111.069 213.238 115.276C211.655 119.484 211.805 124.075 212.129 128.524C212.324 131.72 213.142 134.834 214.524 137.653C211.476 139.681 208.794 142.655 206.204 146.336C203.57 150.083 203.678 150.26 202.018 154.676C201.202 156.852 200.393 159.099 199.691 161.569C205.86 167.766 213.764 171.455 222.094 172.029Z" fill="white"/>
</g>
<defs>
<linearGradient id="paint0_linear_3_2" x1="267.881" y1="6.02062" x2="-72.9389" y2="134.44" gradientUnits="userSpaceOnUse">
<stop stop-color="#E3E7F6"/>
<stop offset="1" stop-color="#E3E7F6" stop-opacity="0"/>
</linearGradient>
<clipPath id="clip0_3_2">
<rect width="317" height="147" fill="white"/>
</clipPath>
</defs>
</svg>
