<svg width="317" height="147" viewBox="0 0 317 147" fill="none" xmlns="http://www.w3.org/2000/svg">
<g clip-path="url(#clip0_3_134)">
<path d="M165.505 29.4H143.794V127.669H165.505V29.4Z" fill="url(#paint0_linear_3_134)"/>
<path d="M140.635 131.407C154.581 131.407 165.886 120.661 165.886 107.404C165.886 94.1479 154.581 83.4015 140.635 83.4015C126.689 83.4015 115.384 94.1479 115.384 107.404C115.384 120.661 126.689 131.407 140.635 131.407Z" fill="url(#paint1_linear_3_134)"/>
<path d="M217.891 128.909C230.387 128.909 240.517 119.281 240.517 107.405C240.517 95.5282 230.387 85.9005 217.891 85.9005C205.395 85.9005 195.265 95.5282 195.265 107.405C195.265 119.281 205.395 128.909 217.891 128.909Z" fill="url(#paint2_linear_3_134)"/>
<path d="M180.57 105.588C190.341 105.588 198.261 98.0617 198.261 88.7775C198.261 79.4933 190.341 71.967 180.57 71.967C170.8 71.967 162.879 79.4933 162.879 88.7775C162.879 98.0617 170.8 105.588 180.57 105.588Z" fill="url(#paint3_linear_3_134)"/>
<path d="M148.336 90.2895C155.14 90.2895 160.657 85.0479 160.657 78.582C160.657 72.1161 155.14 66.8745 148.336 66.8745C141.532 66.8745 136.016 72.1161 136.016 78.582C136.016 85.0479 141.532 90.2895 148.336 90.2895Z" fill="url(#paint4_linear_3_134)"/>
<path d="M179.764 76.902C184.414 76.902 188.185 73.3198 188.185 68.901C188.185 64.4822 184.414 60.9 179.764 60.9C175.114 60.9 171.343 64.4822 171.343 68.901C171.343 73.3198 175.114 76.902 179.764 76.902Z" fill="url(#paint5_linear_3_134)"/>
<path d="M164.786 102.774C173.028 102.774 179.71 96.423 179.71 88.5885C179.71 80.754 173.028 74.403 164.786 74.403C156.544 74.403 149.861 80.754 149.861 88.5885C149.861 96.423 156.544 102.774 164.786 102.774Z" fill="url(#paint6_linear_3_134)"/>
<path d="M45.6328 186.627C70.835 186.627 91.2655 167.211 91.2655 143.262C91.2655 119.313 70.835 99.897 45.6328 99.897C20.4305 99.897 0 119.313 0 143.262C0 167.211 20.4305 186.627 45.6328 186.627Z" fill="url(#paint7_linear_3_134)"/>
<path d="M100.416 150.927C119.313 150.927 134.632 136.373 134.632 118.419C134.632 100.465 119.313 85.911 100.416 85.911C81.5189 85.911 66.1996 100.465 66.1996 118.419C66.1996 136.373 81.5189 150.927 100.416 150.927Z" fill="url(#paint8_linear_3_134)"/>
<path d="M267.74 186.501C294.446 186.501 316.096 165.925 316.096 140.542C316.096 115.161 294.446 94.584 267.74 94.584C241.033 94.584 219.384 115.161 219.384 140.542C219.384 165.925 241.033 186.501 267.74 186.501Z" fill="url(#paint9_linear_3_134)"/>
<path d="M147.814 162.288C166.71 162.288 182.03 147.734 182.03 129.78C182.03 111.826 166.71 97.272 147.814 97.272C128.917 97.272 113.597 111.826 113.597 129.78C113.597 147.734 128.917 162.288 147.814 162.288Z" fill="url(#paint10_linear_3_134)"/>
<path d="M188.925 162.278C210.163 162.278 227.379 145.919 227.379 125.738C227.379 105.557 210.163 89.1975 188.925 89.1975C167.688 89.1975 150.472 105.557 150.472 125.738C150.472 145.919 167.688 162.278 188.925 162.278Z" fill="url(#paint11_linear_3_134)"/>
<path d="M163.928 112.944C163.959 112.148 163.821 111.355 163.524 110.61C163.227 109.867 162.775 109.187 162.196 108.613C161.618 108.04 160.924 107.584 160.157 107.272C159.39 106.96 158.564 106.8 157.731 106.8C156.898 106.8 156.072 106.96 155.305 107.272C154.537 107.584 153.844 108.04 153.266 108.613C152.687 109.187 152.235 109.867 151.938 110.61C151.64 111.355 151.503 112.148 151.534 112.944C151.534 112.944 150.734 126.947 157.735 134.4C164.728 126.947 163.928 112.944 163.928 112.944Z" fill="#BF0830"/>
<path d="M136.707 80.4033C136.707 80.4033 113.494 91.2419 122.689 123.192C122.689 123.192 127.597 107.131 143.35 102.966L136.707 80.4033Z" fill="#120283"/>
<path d="M180.206 80.4033C180.206 80.4033 203.419 91.2419 194.224 123.192C194.224 123.192 189.308 107.131 173.563 102.966L180.206 80.4033Z" fill="#120283"/>
<path d="M166.001 109.632H150.214C149.912 109.633 149.617 109.535 149.38 109.352C149.144 109.171 148.979 108.916 148.913 108.632L148.062 104.95C148.017 104.762 148.017 104.567 148.062 104.378C148.107 104.19 148.195 104.014 148.32 103.864C148.445 103.713 148.603 103.592 148.784 103.509C148.965 103.426 149.163 103.383 149.364 103.384H166.852C167.052 103.383 167.25 103.426 167.43 103.509C167.611 103.592 167.77 103.713 167.896 103.864C168.021 104.014 168.109 104.19 168.154 104.378C168.198 104.567 168.198 104.762 168.153 104.95L167.303 108.632C167.237 108.916 167.072 109.171 166.835 109.352C166.598 109.535 166.304 109.633 166.001 109.632Z" fill="#1A2578"/>
<path d="M135.328 71.7701C135.328 71.7701 137.753 93.2016 145.238 106.779C153.563 103.497 162.891 103.497 171.215 106.779C171.215 106.779 179.798 95.3004 181.558 70.073C182.571 55.5284 181.363 38.9178 176.361 24.6029H141.444C136.8 36.2614 133.492 51.921 135.328 71.7701Z" fill="#DEE4FA"/>
<path d="M155.65 1.38396C149.531 8.25592 144.723 16.1166 141.445 24.6028H176.362C173.164 15.4448 168.417 7.22965 161.697 1.1052C161.287 0.73114 160.802 0.440874 160.271 0.251764C159.741 0.0626531 159.176 -0.0214028 158.612 0.00462322C158.048 0.0306493 157.495 0.166217 156.985 0.403225C156.476 0.640233 156.022 0.973808 155.65 1.38396Z" fill="#1A2578"/>
<path d="M157.837 70.7371C157.837 70.7371 147.127 94.1936 157.837 122.086C157.837 122.086 169.736 98.8095 157.837 70.7371Z" fill="#120283"/>
<path d="M158.831 61.9561C166.272 61.9561 172.304 56.1417 172.304 48.9693C172.304 41.7968 166.272 35.9825 158.831 35.9825C151.39 35.9825 145.358 41.7968 145.358 48.9693C145.358 56.1417 151.39 61.9561 158.831 61.9561Z" fill="#1A2578"/>
<path d="M167.942 51.0413C169.124 46.1925 166.003 41.3384 160.973 40.1992C155.943 39.0602 150.907 42.0676 149.725 46.9164C148.543 51.7652 151.663 56.6195 156.694 57.7585C161.724 58.8975 166.761 55.8902 167.942 51.0413Z" fill="#BF0830"/>
</g>
<defs>
<linearGradient id="paint0_linear_3_134" x1="164.607" y1="31.5531" x2="130.441" y2="34.7406" gradientUnits="userSpaceOnUse">
<stop stop-color="#E3E7F6"/>
<stop offset="1" stop-color="#E3E7F6" stop-opacity="0"/>
</linearGradient>
<linearGradient id="paint1_linear_3_134" x1="163.799" y1="84.4534" x2="96.8441" y2="114.196" gradientUnits="userSpaceOnUse">
<stop stop-color="#E3E7F6"/>
<stop offset="1" stop-color="#E3E7F6" stop-opacity="0"/>
</linearGradient>
<linearGradient id="paint2_linear_3_134" x1="238.647" y1="86.8429" x2="178.657" y2="113.496" gradientUnits="userSpaceOnUse">
<stop stop-color="#E3E7F6"/>
<stop offset="1" stop-color="#E3E7F6" stop-opacity="0"/>
</linearGradient>
<linearGradient id="paint3_linear_3_134" x1="196.798" y1="72.7037" x2="149.896" y2="93.5466" gradientUnits="userSpaceOnUse">
<stop stop-color="#E3E7F6"/>
<stop offset="1" stop-color="#E3E7F6" stop-opacity="0"/>
</linearGradient>
<linearGradient id="paint4_linear_3_134" x1="159.638" y1="67.3875" x2="126.974" y2="81.9031" gradientUnits="userSpaceOnUse">
<stop stop-color="#E3E7F6"/>
<stop offset="1" stop-color="#E3E7F6" stop-opacity="0"/>
</linearGradient>
<linearGradient id="paint5_linear_3_134" x1="187.489" y1="61.2506" x2="165.164" y2="71.1721" gradientUnits="userSpaceOnUse">
<stop stop-color="#E3E7F6"/>
<stop offset="1" stop-color="#E3E7F6" stop-opacity="0"/>
</linearGradient>
<linearGradient id="paint6_linear_3_134" x1="178.475" y1="75.0246" x2="138.905" y2="92.6041" gradientUnits="userSpaceOnUse">
<stop stop-color="#E3E7F6"/>
<stop offset="1" stop-color="#E3E7F6" stop-opacity="0"/>
</linearGradient>
<linearGradient id="paint7_linear_3_134" x1="87.493" y1="101.797" x2="-33.4926" y2="155.557" gradientUnits="userSpaceOnUse">
<stop stop-color="#E3E7F6"/>
<stop offset="1" stop-color="#E3E7F6" stop-opacity="0"/>
</linearGradient>
<linearGradient id="paint8_linear_3_134" x1="131.803" y1="87.3355" x2="41.0936" y2="127.653" gradientUnits="userSpaceOnUse">
<stop stop-color="#E3E7F6"/>
<stop offset="1" stop-color="#E3E7F6" stop-opacity="0"/>
</linearGradient>
<linearGradient id="paint9_linear_3_134" x1="312.098" y1="96.598" x2="183.887" y2="153.562" gradientUnits="userSpaceOnUse">
<stop stop-color="#E3E7F6"/>
<stop offset="1" stop-color="#E3E7F6" stop-opacity="0"/>
</linearGradient>
<linearGradient id="paint10_linear_3_134" x1="179.201" y1="98.6965" x2="88.4909" y2="139.014" gradientUnits="userSpaceOnUse">
<stop stop-color="#E3E7F6"/>
<stop offset="1" stop-color="#E3E7F6" stop-opacity="0"/>
</linearGradient>
<linearGradient id="paint11_linear_3_134" x1="224.201" y1="90.7988" x2="122.251" y2="136.104" gradientUnits="userSpaceOnUse">
<stop stop-color="#E3E7F6"/>
<stop offset="1" stop-color="#E3E7F6" stop-opacity="0"/>
</linearGradient>
<clipPath id="clip0_3_134">
<rect width="317" height="147" fill="white"/>
</clipPath>
</defs>
</svg>
